<?xml version="1.0" encoding="utf-8"?>
<!-- Generator: Adobe Illustrator 22.0.1, SVG Export Plug-In . SVG Version: 6.00 Build 0)  -->
<svg version="1.1" id="Capa_1" xmlns="http://www.w3.org/2000/svg" xmlns:xlink="http://www.w3.org/1999/xlink" x="0px" y="0px" width="80px" height="80px"
	 viewBox="0 0 418.7 461.7" style="enable-background:new 0 0 418.7 461.7;" xml:space="preserve">
<style type="text/css">
	.st0{fill:#FFFFFF;}
	.st1{fill:#2D3192;}
</style>
<g>
	<g>
		<rect x="163.9" y="150.3" class="st0" width="136" height="120"/>
	</g>
	<g>
		<path class="st1" d="M368,455.7c-0.3,0-0.7-0.1-1-0.2c-4.6-1.6-9.2-3.1-13.7-4.7c-9.9-3.4-19.3-6.6-29-9.9
			c-74.1-24.7-153.1-51.1-231.8-77.3c-9.6-3.2-12.7-8.3-13.5-11.9c-0.9-3.6-0.4-9.5,6.6-16.5l32.5-32.5
			c29.9-29.9,59.8-59.8,89.7-89.7c6.3-6.3,13.5-9.6,21.4-9.6c3.5,0,7.1,0.6,10.9,1.8c29.8,9.7,60.2,19.6,89.6,29.1
			c20.3,6.6,40.5,13.1,60.8,19.7c7,2.3,11.5,6.3,12.7,11.5c1.3,5.2-0.9,10.9-6.2,16.2c-8.7,8.8-17.5,17.5-26.2,26.2
			c-15.4,15.4-31.3,31.3-46.8,47c-4.3,4.4-8.3,9.5-11.4,14.8c-6.3,10.6-5.8,21.4,1.7,31.8c7.3,10.3,17.6,18.5,33.2,26.7
			c5.4,2.8,11,5.3,16.9,7.9c2.7,1.2,5.4,2.4,8.2,3.6c1.4,0.6,2.1,2.2,1.6,3.7l-3.4,10.1c-0.3,0.8-0.8,1.4-1.5,1.7
			C368.9,455.6,368.4,455.7,368,455.7z"/>
		<path class="st0" d="M229.2,206.4c3.2,0,6.5,0.6,10,1.7c50.1,16.3,100.3,32.5,150.4,48.8c12.3,4,14.5,13.5,5.4,22.7
			c-24.3,24.4-48.8,48.7-73,73.2c-4.5,4.6-8.6,9.8-11.8,15.3c-7.1,11.9-6.2,23.8,1.8,35.1c8.8,12.4,21.1,20.7,34.3,27.7
			c8,4.2,16.5,7.6,25.3,11.6c-1.1,3.2-2.2,6.4-3.4,10.1c-14.5-4.9-28.6-9.8-42.7-14.6c-77.3-25.8-154.5-51.6-231.8-77.3
			c-13.2-4.4-15.6-13.6-5.7-23.5c40.8-40.7,81.5-81.5,122.2-122.3C215.7,209.3,222.1,206.4,229.2,206.4 M229.2,200.4v6V200.4
			C229.2,200.4,229.2,200.4,229.2,200.4c-8.7,0-16.6,3.5-23.5,10.4c-30,30-60.5,60.6-90.1,90.1c-10.7,10.7-21.5,21.4-32.2,32.2
			c-8,8-8.5,14.9-7.4,19.3c1,4.4,4.6,10.5,15.5,14.1c78.5,26.1,157.5,52.5,231.8,77.3c9.6,3.2,19,6.4,29,9.9
			c4.5,1.6,9.1,3.1,13.7,4.7c0.6,0.2,1.3,0.3,1.9,0.3c0.9,0,1.8-0.2,2.6-0.6c1.4-0.7,2.5-1.9,3-3.5l3.4-10.1c1-2.9-0.4-6.1-3.2-7.4
			c-2.8-1.3-5.6-2.5-8.2-3.7c-5.9-2.6-11.4-5-16.7-7.8c-15.2-8-25.1-16-32.2-25.8c-6.8-9.6-7.3-18.9-1.6-28.6c3-5.1,6.8-10,11-14.2
			c15.5-15.7,31.4-31.6,46.8-47c8.6-8.6,17.5-17.5,26.2-26.2c6-6,8.5-12.8,7-19c-1.5-6.2-6.7-11.1-14.7-13.6
			c-20.3-6.6-40.6-13.2-61-19.8c-29.3-9.5-59.6-19.3-89.4-29C237,201.1,233,200.4,229.2,200.4L229.2,200.4z"/>
	</g>
	<g>
		<path class="st1" d="M71.3,341.7c-6.4,0-11.7-4.7-14.3-12.5C40.6,278.6,24,227,8,177.2l-0.6-1.8c-0.6-1.9-0.8-3.8-1-5.1
			c0-0.3-0.1-0.6-0.1-0.8l0-0.3l0-0.3c0.1-9.3,2.8-16.2,8.5-21.9c12.2-12.2,24.4-24.4,36.6-36.6c28.8-28.8,58.5-58.6,87.8-87.8
			c3.9-3.9,8.2-5.9,12.4-5.9c6.5,0,11.9,4.7,14.4,12.5c17.8,54.6,33.9,104.4,49.4,152.3c3.6,11.2,1.2,21.5-7.1,29.7
			c-42.9,43-84.8,84.9-124.4,124.4C80,339.7,75.6,341.7,71.3,341.7z"/>
		<path class="st0" d="M151.6,19.7c5,0,9.3,3.6,11.6,10.4c16.5,50.8,33,101.5,49.4,152.3c3.2,10.1,1.2,19.2-6.3,26.7
			c-41.4,41.5-82.9,83-124.4,124.4c-3.5,3.5-7.1,5.2-10.5,5.2c-4.9,0-9.2-3.6-11.4-10.5C43.2,277,26.7,225.8,10.2,174.5
			c-0.7-2.2-0.8-4.5-1-5.4c0.1-8.6,2.5-14.8,7.6-19.8c41.5-41.5,82.9-83,124.4-124.4C144.7,21.4,148.3,19.7,151.6,19.7 M151.6,13.7
			L151.6,13.7c-5.1,0-10.1,2.3-14.6,6.8c-29.4,29.4-59.3,59.3-88.3,88.2c-12.1,12.1-24.1,24.1-36.2,36.2c-6.3,6.3-9.3,13.9-9.4,24
			l0,0.6l0.1,0.6c0,0.2,0,0.4,0.1,0.6c0.2,1.3,0.4,3.4,1.1,5.6l0.8,2.6c16,49.6,32.5,100.9,48.9,151.2c3,9.1,9.4,14.6,17.1,14.6
			c5.1,0,10.2-2.4,14.7-6.9c39.7-39.6,81.6-81.4,124.4-124.4c9.1-9.1,11.8-20.4,7.8-32.8c-15.4-47.8-31.6-97.7-49.4-152.3
			C165.9,19.2,159.5,13.7,151.6,13.7L151.6,13.7z"/>
	</g>
	<g>
		<path class="st1" d="M397.3,253.4c-1.4,0-2.8-0.2-4.3-0.6c-9.8-2.8-19.6-6-29.2-9.1c-2.8-0.9-5.7-1.9-8.5-2.8
			c-13-4.2-26-8.4-39-12.6c-25-8.1-50.8-16.5-76.3-24.6c-12.8-4.1-21-12.2-25-24.7c-11.4-35.6-23.2-71.7-34.5-106.6
			c-4.6-14.1-9.2-28.2-13.8-42.4c-0.4-1.3-0.9-2.7-1.2-4.2c-1.1-5.1-0.2-9.7,2.5-13c2.4-2.9,6-4.6,10.1-4.6c1.7,0,3.5,0.3,5.3,0.8
			c9.2,2.8,18.5,5.8,27.5,8.7c3.2,1,6.4,2.1,9.6,3.1l21.8,7c31.3,10,63.7,20.3,95.5,30.6c11,3.5,18.4,10.9,21.9,21.9l13.7,42.9
			c11.7,36.5,23.4,73,35,109.5c0.5,1.7,0.9,3.4,1.1,4.5c0.1,0.3,0.1,0.6,0.2,0.8l0.1,0.3l0,0.3C410,247.5,404.9,253.4,397.3,253.4z"
			/>
		<path class="st0" d="M178.3,11.3c1.4,0,2.9,0.2,4.5,0.7c12.4,3.7,24.7,7.8,37.1,11.7c39.1,12.5,78.2,25,117.3,37.5
			c10,3.2,16.8,9.9,20,20c16.3,50.8,32.5,101.6,48.8,152.4c0.7,2,1,4.2,1.2,5.1c-0.1,7.2-4.1,11.7-9.8,11.7c-1.1,0-2.3-0.2-3.5-0.5
			c-12.6-3.6-25.1-7.8-37.6-11.9c-38.4-12.4-76.8-25-115.3-37.3c-11.7-3.7-19.3-10.9-23.1-22.7c-16-49.7-32.2-99.3-48.3-148.9
			c-0.4-1.3-0.8-2.5-1.1-3.8C166.9,17.1,171.2,11.3,178.3,11.3 M178.3,5.3L178.3,5.3c-5.1,0-9.5,2-12.5,5.7c-3.3,4-4.4,9.5-3.1,15.5
			c0.3,1.6,0.8,3.1,1.2,4.5c4.6,14.1,9.2,28.2,13.8,42.3c11.4,34.9,23.1,71.1,34.6,106.6c4.3,13.5,13.1,22.2,26.9,26.6
			c25.4,8.1,51.3,16.5,76.3,24.6c13,4.2,26,8.4,39,12.6c2.8,0.9,5.7,1.8,8.5,2.8c9.5,3.1,19.4,6.3,29.3,9.1c1.7,0.5,3.4,0.7,5.1,0.7
			c9.2,0,15.7-7.2,15.8-17.6l0-0.7l-0.2-0.7c0-0.2-0.1-0.4-0.1-0.7c-0.2-1.2-0.6-3-1.2-4.9C399.9,194.9,388,158,376.2,121
			l-13.3-41.6c-3.8-11.8-12-20.1-23.9-23.9C307.2,45.3,274.8,35,243.5,25l-21.8-7c-3.2-1-6.4-2-9.6-3.1c-9-2.9-18.4-5.9-27.6-8.7
			C182.4,5.6,180.3,5.3,178.3,5.3L178.3,5.3z"/>
	</g>
</g>
</svg>
