<?xml version="1.0" encoding="utf-8"?>
<!-- Generator: Adobe Illustrator 22.0.1, SVG Export Plug-In . SVG Version: 6.00 Build 0)  -->
<svg version="1.1" id="Capa_1" xmlns="http://www.w3.org/2000/svg" xmlns:xlink="http://www.w3.org/1999/xlink" x="0px" y="0px" width="80px" height="80px"
	 viewBox="0 0 395.8 268.6" style="enable-background:new 0 0 395.8 268.6;" xml:space="preserve">
<style type="text/css">
	.st0{fill:url(#SVGID_1_);}
	.st1{fill:url(#SVGID_2_);}
	.st2{fill:url(#SVGID_3_);}
	.st3{fill:#C7C8CA;}
	.st4{fill:url(#SVGID_4_);}
	.st5{fill:url(#SVGID_5_);}
	.st6{fill:url(#SVGID_6_);}
	.st7{fill:#D4B86A;}
	.st8{fill:url(#SVGID_7_);}
	.st9{fill:url(#SVGID_8_);}
	.st10{fill:#FEFBE4;}
	.st11{fill:url(#SVGID_9_);}
	.st12{fill:#6E5441;}
	.st13{fill:url(#SVGID_10_);}
	.st14{fill:url(#SVGID_11_);}
	.st15{fill:url(#SVGID_12_);}
	.st16{fill:url(#SVGID_13_);}
	.st17{fill:url(#SVGID_14_);}
	.st18{fill:url(#SVGID_15_);}
	.st19{fill:url(#SVGID_16_);}
	.st20{fill:url(#SVGID_17_);}
	.st21{fill:url(#SVGID_18_);}
	.st22{fill:url(#SVGID_19_);}
	.st23{fill:url(#SVGID_20_);}
	.st24{fill:url(#SVGID_21_);}
	.st25{fill:url(#SVGID_22_);}
	.st26{fill:url(#SVGID_23_);}
	.st27{fill:url(#SVGID_24_);}
	.st28{fill:url(#SVGID_25_);}
	.st29{fill:url(#SVGID_26_);}
	.st30{fill:url(#SVGID_27_);}
	.st31{fill:url(#SVGID_28_);}
	.st32{fill:url(#SVGID_29_);}
	.st33{fill:url(#SVGID_30_);}
	.st34{fill:url(#SVGID_31_);}
	.st35{fill:url(#SVGID_32_);}
	.st36{fill:url(#SVGID_33_);}
	.st37{fill:url(#SVGID_34_);}
	.st38{fill:url(#SVGID_35_);}
	.st39{fill:url(#SVGID_36_);}
	.st40{fill:url(#SVGID_37_);}
	.st41{fill:url(#SVGID_38_);}
	.st42{fill:#223610;}
	.st43{fill:#FFFFFF;}
	.st44{fill:#AFCCB8;}
	.st45{fill:#F9CF00;}
	.st46{fill:#FFFDEC;}
	.st47{fill:#FFF9C5;}
	.st48{fill:#E6E2C9;}
	.st49{fill:none;stroke:#000000;stroke-miterlimit:10;}
</style>
<g>
	<g>
		<path class="st42" d="M391.1,118c-36.3,27-92.4,45.1-92.4,45.1s53.6-20,86.1-56.9c22.7-25.7,1.7-41.8,1.7-41.8
			c-40.1,48.9-87.6,70.4-87.6,70.4s50-37.1,77.4-82.4c18.8-31.1-7.5-47.5-7.5-47.5C317.6,99.3,241.1,131.7,221.3,140
			c7.4,7.5,17.7,37.7,17.7,49c0,13.2-6.2,36.2-15.7,43.8c7.9,5.4,33.4,26.2,60.8,33.3c22.8,5.9,26.9-8.2,26.9-8.2
			c-19.1-3.8-43.3-17.5-43.3-17.5s27.2,12.7,52.1,11.4c18.3-1,18.7-13.3,18.7-13.3c-32,0-63.7-14.5-63.7-14.5s40.3,11.3,68.5,4.8
			c22.2-5.1,19.8-22,19.8-22c-25.6,4-68.1,1.3-68.1,1.3s37.2,0.8,71.6-14.1c25.3-10.9,16.5-27.9,16.5-27.9
			c-32,15.3-85.8,21.2-85.8,21.2s47.5-9.9,81.2-32.1C406,137,391.1,118,391.1,118z M269.3,245.2c0.9,0.5,2.2,1.1,3.7,1.8
			c1.5,0.7,3.3,1.6,5.3,2.4c1,0.5,2,0.8,3,1.3c1,0.5,2,0.9,3.1,1.3c4.1,1.7,8.3,3.4,11.5,4.6c3.2,1.3,5.3,2.2,5.3,2.2
			s-2.3,0-5.7-0.7c-1.7-0.3-3.7-0.8-5.7-1.4c-2.1-0.6-4.2-1.4-6.4-2.3c-2.1-0.9-4.2-1.9-6.1-3c-1.9-1-3.6-2.2-5-3.2
			c-1.4-1-2.5-2-3.2-2.7c-0.7-0.7-1.1-1.1-1.1-1.1S268.4,244.8,269.3,245.2z M268.1,251.8c1.4,0.6,2.9,1.3,4.4,1.9
			c1.5,0.7,3,1.3,4.4,1.9c1.4,0.5,2.7,1.2,3.9,1.6c1.1,0.5,2.1,0.9,2.7,1.2c0.7,0.3,1,0.5,1,0.5s-0.4,0-1.1-0.1
			c-0.7-0.1-1.8-0.2-3-0.4c-1.2-0.3-2.7-0.5-4.1-1c-1.5-0.5-3-1.1-4.6-1.7c-1.5-0.7-3-1.5-4.4-2.2c-1.4-0.7-2.6-1.6-3.6-2.3
			c-1-0.7-1.8-1.4-2.4-1.9c-0.5-0.5-0.8-0.8-0.8-0.8s0.4,0.2,1.1,0.4c0.7,0.3,1.6,0.7,2.7,1.2C265.4,250.7,266.7,251.2,268.1,251.8z
			 M306.6,165.2c1.2-0.4,2.6-0.9,4.2-1.5c1.6-0.6,3.4-1.3,5.4-2c2-0.7,4.1-1.5,6.4-2.4c2.2-0.9,4.6-1.8,7-2.8c4.9-2,10-4.2,15.1-6.6
			c5.1-2.3,10.2-4.8,14.9-7.1c4.7-2.4,9.1-4.6,12.8-6.6c3.7-2,6.8-3.7,9-4.9c2.1-1.2,3.4-1.9,3.4-1.9s-1.1,0.9-3.1,2.4
			c-2,1.4-4.9,3.5-8.5,5.8c-3.6,2.3-7.8,4.9-12.5,7.4c-4.7,2.5-9.7,5.1-14.9,7.4c-2.6,1.2-5.2,2.3-7.8,3.4c-2.5,1.1-5.2,2-7.6,3
			c-2.5,1-4.9,1.7-7.2,2.5c-2.3,0.8-4.5,1.4-6.6,2c-4.1,1.3-7.5,2-9.9,2.6c-2.4,0.5-3.8,0.8-3.8,0.8S304.3,166,306.6,165.2z
			 M367.1,113.4c-1.4,1.4-3.3,3.4-5.9,5.7c-2.5,2.3-5.5,4.9-8.8,7.5c-3.4,2.6-7,5.2-10.8,7.8c-3.8,2.4-7.7,4.7-11.4,6.8
			c-3.7,2-7.3,3.7-10.4,5.1c-3.1,1.4-5.7,2.4-7.6,3.1c-1.9,0.7-2.9,1.1-2.9,1.1s1-0.5,2.8-1.4c1.8-0.9,4.2-2.2,7.2-3.8
			c3-1.5,6.4-3.6,10-5.7c3.6-2.1,7.4-4.5,11.2-7c3.8-2.4,7.5-5,10.8-7.5c3.4-2.5,6.6-4.8,9.2-6.9c2.6-2.1,4.9-3.8,6.4-5.1
			c1.5-1.2,2.4-2,2.4-2S368.4,112,367.1,113.4z M309.4,135c2.3-1.5,5.8-3.4,9.7-6c2-1.3,4.2-2.6,6.4-4.1c2.2-1.5,4.6-3.1,7.1-4.7
			c2.5-1.6,4.9-3.4,7.4-5.2c2.6-1.7,5-3.7,7.5-5.6c2.5-1.8,5-3.8,7.4-5.8c2.4-1.9,4.7-3.9,6.9-5.8c2.1-2,4.3-3.8,6.2-5.7
			c2-1.9,3.8-3.6,5.4-5.4c1.6-1.7,3.1-3.3,4.3-4.7c1.3-1.4,2.3-2.7,3.2-3.8c1.7-2.2,2.6-3.5,2.6-3.5s-0.7,1.4-2.2,3.8
			c-0.7,1.2-1.7,2.6-2.8,4.1c-1.2,1.5-2.4,3.3-4,5.1c-1.5,1.8-3.2,3.7-5.1,5.7c-1.8,2-3.9,4-6,6.1c-2.2,2-4.4,4.1-6.9,6.1
			c-2.4,2-4.8,4-7.4,5.9c-2.5,1.9-5.1,3.8-7.7,5.5c-2.6,1.8-5.1,3.5-7.6,5c-2.5,1.6-5,3.1-7.3,4.4c-2.4,1.3-4.6,2.6-6.7,3.7
			c-2.1,1.2-4,2.2-5.7,3c-1.7,0.8-3.2,1.6-4.5,2.2c-2.5,1.2-3.9,1.8-3.9,1.8S307.1,136.5,309.4,135z M365.1,53
			c-0.9,1.9-2.3,4.5-4.1,7.6c-1.8,3.1-3.9,6.7-6.4,10.4c-2.5,3.7-5.3,7.6-8.2,11.4c-3,3.7-6.1,7.4-9.1,10.7c-3,3.3-6,6.3-8.6,8.7
			c-2.6,2.5-4.9,4.4-6.4,5.8c-1.6,1.3-2.5,2.1-2.5,2.1s0.8-0.9,2.2-2.4c1.5-1.5,3.5-3.7,5.9-6.3c2.4-2.6,5.1-5.8,8.1-9.1
			c2.9-3.4,5.9-7,8.8-10.8c2.9-3.7,5.8-7.5,8.4-11.1c2.5-3.7,5-7,6.9-10c2-3,3.6-5.4,4.7-7.2c1.1-1.8,1.8-2.8,1.8-2.8
			S366,51.1,365.1,53z M288.3,110.6c1.3-1.2,2.9-2.6,4.8-4.2c1.7-1.4,2.7-2.6,6.1-5.6c2.2-2.1,4.7-4.2,7.1-6.7c2.5-2.4,5-5,7.7-7.7
			c2.6-2.7,5.4-5.5,8-8.4c2.6-3,5.4-5.9,8-9c2.6-3,5.3-6,7.8-9.1c2.5-3,5-6.1,7.3-9.1c4.6-6,8.9-11.6,12.3-16.6
			c3.5-5,6.3-9.2,8.1-12.2c1.9-3,2.9-4.7,2.9-4.7s-0.8,1.9-2.5,5c-1.7,3.1-4.1,7.6-7.3,12.7c-1.6,2.6-3.4,5.3-5.4,8.2
			c-2,2.9-4,5.9-6.4,8.9c-2.3,3.1-4.7,6.2-7.2,9.3c-2.4,3.2-5.1,6.2-7.7,9.3c-2.7,3.1-5.5,6-8.2,8.9c-2.7,2.9-5.6,5.6-8.2,8.4
			c-2.7,2.7-5.5,5.1-8,7.5c-2.5,2.4-5.1,4.5-7.4,6.4c-2.3,2-4.4,3.8-6.4,5.3c-2,1.5-3.7,2.8-5.1,3.9c-2.8,2.1-4.5,3.3-4.5,3.3
			S285.7,112.9,288.3,110.6z M278.6,229.3c1.4,0.4,3.3,1,5.7,1.8c2.3,0.7,5.1,1.5,8,2.4c2.9,0.8,6,1.7,9.2,2.5
			c6.3,1.6,12.6,3,17.4,4c2.4,0.5,4.4,0.9,5.8,1.1c1.4,0.2,2.2,0.4,2.2,0.4s-0.8,0.1-2.3,0.1c-1.4,0-3.5,0.1-6-0.1
			c-2.5-0.2-5.3-0.4-8.4-0.9c-3.1-0.5-6.3-1.2-9.5-2c-3.2-0.9-6.3-1.8-9.2-2.9c-2.9-1.1-5.6-2.1-7.8-3.2c-2.3-1-4-2-5.3-2.7
			c-1.3-0.7-2-1.1-2-1.1S277.2,228.9,278.6,229.3z M276.5,235c1.3,0.5,2.9,0.9,4.6,1.5c1.7,0.6,3.4,1.2,5.2,1.7
			c1.8,0.6,3.5,1.2,5.2,1.8c1.7,0.5,3.2,1.1,4.5,1.6c1.3,0.4,2.4,0.9,3.2,1.2c0.8,0.3,1.2,0.5,1.2,0.5s-0.5,0-1.3-0.1
			c-0.8-0.1-2-0.2-3.4-0.4c-1.4-0.3-3-0.5-4.8-1c-1.7-0.5-3.5-1-5.3-1.5c-1.8-0.7-3.5-1.3-5.2-2c-1.6-0.7-3.1-1.5-4.4-2.1
			c-1.3-0.6-2.3-1.3-3-1.7c-0.7-0.5-1.1-0.7-1.1-0.7s0.5,0.1,1.3,0.3C274,234.3,275.2,234.6,276.5,235z M322.3,224.2
			c-1,0.2-2.4,0.5-4.1,0.8c-1.7,0.2-3.7,0.5-5.8,0.6c-2.1,0.1-4.4,0.1-6.7,0c-2.3-0.2-4.5-0.4-6.7-0.7c-2.1-0.3-4.1-0.8-5.7-1.1
			c-1.7-0.4-3-0.9-4-1.1c-0.9-0.3-1.5-0.5-1.5-0.5s0.6,0,1.6,0.1c1,0.1,2.4,0.2,4.1,0.4c1.7,0.2,3.6,0.3,5.7,0.5
			c2.1,0.2,4.3,0.3,6.6,0.4c2.2,0.1,4.5,0.2,6.6,0.3c2.1,0,4.1,0.1,5.8,0.1c1.7,0,3.1,0,4.1,0c1,0,1.6,0,1.6,0
			S323.3,224,322.3,224.2z M296.3,212.6c1.6,0,3.8-0.1,6.5-0.2c2.7,0,5.8,0,9.2,0c3.3,0,6.9,0,10.5,0c14.3,0.1,28.6,0.3,28.6,0.3
			s-0.9,0.2-2.4,0.5c-1.6,0.3-3.8,0.6-6.5,0.9c-2.7,0.3-5.8,0.6-9.2,0.7c-3.4,0.2-7,0.2-10.5,0.2c-7.2-0.1-14.4-0.5-19.7-1.1
			c-2.7-0.3-4.9-0.7-6.5-0.9c-1.6-0.2-2.4-0.4-2.4-0.4S294.7,212.7,296.3,212.6z M353.1,193.5c-1.1,0.5-2.5,1.3-4.4,2.1
			c-1.9,0.8-4.1,1.7-6.5,2.5c-2.4,0.8-5,1.5-7.6,2.2c-2.6,0.6-5.3,1-7.8,1.4c-2.5,0.4-4.9,0.5-6.9,0.6c-2,0.1-3.7,0.1-4.9,0.1
			c-1.2,0-1.9-0.1-1.9-0.1s0.7-0.1,1.8-0.3c1.2-0.2,2.8-0.5,4.8-0.8c2-0.3,4.3-0.8,6.7-1.3c2.5-0.5,5.1-1,7.6-1.7
			c2.6-0.6,5.2-1.2,7.6-1.9c2.4-0.7,4.7-1.2,6.6-1.8c1.9-0.6,3.6-1,4.7-1.4c1.1-0.3,1.8-0.5,1.8-0.5S354.1,192.9,353.1,193.5z
			 M304.3,191.1c2-0.4,4.8-0.9,8.2-1.5c3.4-0.6,7.4-1.4,11.6-2.2c4.2-0.8,8.8-1.7,13.3-2.6c4.5-0.9,9-1.9,13.2-2.9
			c4.2-1,8.1-1.9,11.5-2.8c3.3-0.9,6.1-1.6,8.1-2.2c1.9-0.6,3.1-0.9,3.1-0.9s-1,0.6-2.9,1.4c-1.9,0.8-4.5,2-7.8,3.1
			c-3.3,1.1-7.1,2.5-11.3,3.6c-4.2,1.2-8.7,2.3-13.3,3.2c-4.6,0.9-9.1,1.7-13.4,2.3c-4.3,0.6-8.4,1-11.8,1.3
			c-3.5,0.4-6.4,0.4-8.4,0.5c-2,0.1-3.2,0.1-3.2,0.1S302.3,191.5,304.3,191.1z M347,165c-1.3,0.7-3,1.8-5.2,2.9
			c-2.2,1.1-4.8,2.4-7.6,3.6c-2.9,1.2-5.9,2.4-9,3.5c-3.1,1-6.3,1.9-9.3,2.7c-3,0.8-5.8,1.3-8.2,1.8c-2.4,0.5-4.5,0.7-5.9,0.9
			c-1.4,0.2-2.2,0.2-2.2,0.2s0.8-0.2,2.2-0.6c1.4-0.4,3.3-1,5.7-1.6c2.4-0.6,5.1-1.5,8-2.4c2.9-0.9,6-1.9,9.1-3c3.1-1,6.2-2.1,9-3.2
			c2.8-1.1,5.6-2,7.8-3c2.3-0.9,4.2-1.6,5.5-2.2c1.3-0.5,2.1-0.8,2.1-0.8S348.2,164.2,347,165z"/>
	</g>
	<g>
		<path class="st42" d="M17.5,155.1c33.8,22.2,81.2,32.1,81.2,32.1s-53.8-5.9-85.8-21.2c0,0-8.8,17,16.5,27.9
			c34.5,14.9,71.6,14.1,71.6,14.1s-42.5,2.7-68.1-1.3c0,0-2.4,16.9,19.8,22c28.2,6.5,68.5-4.8,68.5-4.8s-31.7,14.5-63.7,14.5
			c0,0,0.4,12.4,18.7,13.3c24.9,1.3,52.1-11.4,52.1-11.4s-24.2,13.7-43.3,17.5c0,0,4,14.2,26.9,8.2c27.4-7.1,52.9-27.9,60.8-33.3
			c-9.6-7.6-15.7-30.6-15.7-43.8c0-11.3,10.3-41.5,17.7-49C154.9,131.7,78.4,99.3,27.2,4.8c0,0-26.3,16.4-7.5,47.5
			C47,97.6,97,134.7,97,134.7S49.5,113.2,9.4,64.3c0,0-20.9,16,1.7,41.8C43.6,143,97.3,163,97.3,163S41.2,145,4.8,118
			C4.8,118-10,137,17.5,155.1z M128.1,244.6c0,0-0.4,0.4-1.1,1.1c-0.7,0.7-1.8,1.6-3.2,2.7c-1.4,1-3.1,2.1-5,3.2c-1.9,1.1-4,2-6.1,3
			c-2.1,0.9-4.3,1.6-6.4,2.3c-2.1,0.6-4,1.1-5.7,1.4c-3.4,0.7-5.7,0.7-5.7,0.7s2.1-0.9,5.3-2.2c3.2-1.3,7.4-2.9,11.5-4.6
			c1-0.4,2.1-0.8,3.1-1.3c1-0.5,2-0.8,3-1.3c1.9-0.8,3.7-1.7,5.3-2.4c1.5-0.7,2.8-1.3,3.7-1.8C127.5,244.8,128.1,244.6,128.1,244.6z
			 M131.7,250.1c1.1-0.5,2.1-0.9,2.7-1.2c0.7-0.3,1.1-0.4,1.1-0.4s-0.3,0.3-0.8,0.8c-0.6,0.5-1.3,1.2-2.4,1.9
			c-1,0.7-2.2,1.6-3.6,2.3c-1.4,0.7-2.9,1.5-4.4,2.2c-1.5,0.6-3.1,1.2-4.6,1.7c-1.5,0.5-2.9,0.8-4.1,1c-1.2,0.3-2.3,0.3-3,0.4
			c-0.7,0.1-1.1,0.1-1.1,0.1s0.4-0.2,1-0.5c0.7-0.3,1.6-0.7,2.7-1.2c1.1-0.4,2.4-1.1,3.9-1.6c1.4-0.6,2.9-1.2,4.4-1.9
			c1.5-0.6,3-1.3,4.4-1.9C129.2,251.2,130.6,250.7,131.7,250.1z M93,166.5c0,0-1.4-0.3-3.8-0.8c-2.4-0.6-5.9-1.3-9.9-2.6
			c-2-0.6-4.2-1.2-6.6-2c-2.3-0.8-4.8-1.5-7.2-2.5c-2.5-1-5.1-1.8-7.6-3c-2.6-1.1-5.2-2.2-7.8-3.4c-5.2-2.3-10.2-4.9-14.9-7.4
			c-4.7-2.5-8.9-5.1-12.5-7.4c-3.6-2.2-6.5-4.3-8.5-5.8c-2-1.5-3.1-2.4-3.1-2.4s1.2,0.7,3.4,1.9c2.1,1.2,5.2,2.9,9,4.9
			c3.7,2,8.1,4.2,12.8,6.6c4.7,2.3,9.8,4.8,14.9,7.1c5.1,2.4,10.3,4.6,15.1,6.6c2.4,1,4.8,1.9,7,2.8c2.2,0.9,4.4,1.7,6.4,2.4
			c2,0.7,3.8,1.4,5.4,2c1.6,0.6,3,1.1,4.2,1.5C91.6,166,93,166.5,93,166.5z M26.8,111.2c0,0,0.9,0.7,2.4,2c1.5,1.3,3.7,3,6.4,5.1
			c2.6,2.1,5.8,4.4,9.2,6.9c3.4,2.5,7.1,5,10.8,7.5c3.7,2.5,7.5,4.9,11.2,7c3.6,2.1,7,4.1,10,5.7c3,1.6,5.4,2.9,7.2,3.8
			c1.8,0.9,2.8,1.4,2.8,1.4s-1.1-0.4-2.9-1.1c-1.8-0.7-4.5-1.7-7.6-3.1c-3.1-1.4-6.7-3.1-10.4-5.1c-3.7-2.1-7.6-4.4-11.4-6.8
			c-3.8-2.5-7.4-5.2-10.8-7.8c-3.4-2.6-6.3-5.2-8.8-7.5c-2.5-2.3-4.5-4.3-5.9-5.7C27.5,112,26.8,111.2,26.8,111.2z M90.2,137.3
			c0,0-1.4-0.7-3.9-1.8c-1.2-0.6-2.8-1.3-4.5-2.2c-1.7-0.8-3.7-1.8-5.7-3c-2.1-1.1-4.3-2.4-6.7-3.7c-2.4-1.4-4.8-2.9-7.3-4.4
			c-2.5-1.5-5.1-3.3-7.6-5c-2.6-1.7-5.1-3.6-7.7-5.5c-2.6-1.9-5-3.9-7.4-5.9c-2.4-1.9-4.6-4.1-6.9-6.1c-2.1-2.1-4.2-4.1-6-6.1
			c-1.9-2-3.6-3.9-5.1-5.7c-1.6-1.8-2.9-3.6-4-5.1c-1.1-1.6-2.1-3-2.8-4.1c-1.5-2.3-2.2-3.8-2.2-3.8s0.9,1.3,2.6,3.5
			c0.8,1.1,1.9,2.4,3.2,3.8c1.3,1.4,2.7,3,4.3,4.7c1.6,1.7,3.4,3.5,5.4,5.4c1.9,1.9,4.1,3.7,6.2,5.7c2.3,1.9,4.5,3.9,6.9,5.8
			c2.4,1.9,4.8,3.9,7.4,5.8c2.5,1.9,5,3.8,7.5,5.6c2.5,1.7,5,3.6,7.4,5.2c2.4,1.6,4.8,3.2,7.1,4.7c2.3,1.4,4.4,2.8,6.4,4.1
			c4,2.6,7.4,4.5,9.7,6C88.9,136.5,90.2,137.3,90.2,137.3z M29.4,50c0,0,0.6,1,1.8,2.8c1.1,1.8,2.8,4.2,4.7,7.2
			c1.9,3,4.4,6.4,6.9,10c2.6,3.6,5.4,7.4,8.4,11.1c2.9,3.8,5.9,7.4,8.8,10.8c2.9,3.3,5.6,6.5,8.1,9.1c2.4,2.6,4.4,4.8,5.9,6.3
			c1.4,1.5,2.2,2.4,2.2,2.4s-0.9-0.8-2.5-2.1c-1.6-1.4-3.9-3.3-6.4-5.8c-2.6-2.5-5.6-5.4-8.6-8.7c-3-3.3-6.1-7-9.1-10.7
			c-2.9-3.8-5.7-7.7-8.2-11.4c-2.5-3.7-4.6-7.3-6.4-10.4c-1.8-3.1-3.1-5.8-4.1-7.6C29.9,51.1,29.4,50,29.4,50z M111.8,114.3
			c0,0-1.6-1.2-4.5-3.3c-1.4-1.1-3.1-2.4-5.1-3.9c-2-1.5-4.1-3.3-6.4-5.3c-2.3-2-4.9-4-7.4-6.4c-2.6-2.4-5.3-4.8-8-7.5
			c-2.7-2.7-5.5-5.5-8.2-8.4c-2.7-2.9-5.5-5.9-8.2-8.9c-2.6-3.1-5.3-6.2-7.7-9.3c-2.5-3.1-4.9-6.2-7.2-9.3c-2.3-3-4.4-6.1-6.4-8.9
			c-1.9-2.9-3.8-5.6-5.4-8.2c-3.3-5.1-5.6-9.6-7.3-12.7c-1.6-3.1-2.5-5-2.5-5s1,1.7,2.9,4.7c1.9,3,4.7,7.2,8.1,12.2
			c3.4,5,7.7,10.6,12.3,16.6c2.3,3,4.7,6.1,7.3,9.1c2.5,3.1,5.2,6.1,7.8,9.1c2.6,3.1,5.4,6,8,9c2.7,2.9,5.4,5.7,8,8.4
			c2.7,2.7,5.3,5.3,7.7,7.7c2.4,2.5,4.9,4.7,7.1,6.7c3.3,3,4.4,4.2,6.1,5.6c1.8,1.6,3.5,3.1,4.8,4.2
			C110.3,112.9,111.8,114.3,111.8,114.3z M119.6,228.6c0,0-0.7,0.4-2,1.1c-1.3,0.7-3.1,1.7-5.3,2.7c-2.2,1.1-4.9,2.1-7.8,3.2
			c-2.9,1.1-6.1,2-9.2,2.9c-3.2,0.8-6.4,1.5-9.5,2c-3,0.5-5.9,0.8-8.4,0.9c-2.5,0.2-4.5,0.1-6,0.1c-1.4,0-2.3-0.1-2.3-0.1
			s0.8-0.1,2.2-0.4c1.4-0.2,3.4-0.6,5.8-1.1c4.8-0.9,11.1-2.4,17.4-4c3.1-0.8,6.3-1.7,9.2-2.5c2.9-0.9,5.7-1.7,8-2.4
			c2.3-0.7,4.3-1.3,5.7-1.8C118.8,228.9,119.6,228.6,119.6,228.6z M122.7,234c0.8-0.2,1.3-0.3,1.3-0.3s-0.4,0.3-1.1,0.7
			c-0.7,0.4-1.7,1.1-3,1.7c-1.3,0.6-2.7,1.4-4.4,2.1c-1.6,0.7-3.4,1.3-5.2,2c-1.8,0.6-3.6,1.1-5.3,1.5c-1.7,0.5-3.4,0.7-4.8,1
			c-1.4,0.3-2.6,0.3-3.4,0.4c-0.8,0.1-1.3,0.1-1.3,0.1s0.4-0.2,1.2-0.5c0.8-0.3,1.9-0.7,3.2-1.2c1.3-0.4,2.9-1.1,4.5-1.6
			c1.7-0.5,3.4-1.1,5.2-1.8c1.8-0.6,3.6-1.1,5.2-1.7c1.7-0.6,3.2-1,4.6-1.5C120.8,234.6,121.9,234.3,122.7,234z M72.1,223.8
			c0,0,0.6,0,1.6,0c1,0,2.4,0,4.1,0c1.7,0,3.7-0.1,5.8-0.1c2.1,0,4.3-0.1,6.6-0.3c2.2-0.1,4.5-0.2,6.6-0.4c2.1-0.2,4.1-0.3,5.7-0.5
			c1.7-0.2,3.1-0.3,4.1-0.4c1-0.1,1.6-0.1,1.6-0.1s-0.5,0.2-1.5,0.5c-1,0.3-2.3,0.8-4,1.1c-1.7,0.4-3.6,0.8-5.7,1.1
			c-2.1,0.3-4.4,0.5-6.7,0.7c-2.3,0.1-4.6,0-6.7,0c-2.1-0.1-4.1-0.4-5.8-0.6c-1.7-0.2-3.1-0.6-4.1-0.8
			C72.7,224,72.1,223.8,72.1,223.8z M102.1,212.7c0,0-0.9,0.2-2.4,0.4c-1.6,0.2-3.8,0.6-6.5,0.9c-5.4,0.6-12.5,1.1-19.7,1.1
			c-3.6,0-7.2,0-10.5-0.2c-3.4-0.2-6.5-0.4-9.2-0.7c-2.7-0.3-4.9-0.7-6.5-0.9c-1.6-0.3-2.4-0.5-2.4-0.5s14.3-0.1,28.6-0.3
			c3.6,0,7.1,0,10.5,0c3.4,0,6.5,0,9.2,0c2.7,0.1,4.9,0.1,6.5,0.2C101.2,212.7,102.1,212.7,102.1,212.7z M41.3,192.6
			c0,0,0.6,0.2,1.8,0.5c1.1,0.4,2.8,0.8,4.7,1.4c1.9,0.6,4.2,1.1,6.6,1.8c2.4,0.7,5,1.3,7.6,1.9c2.6,0.6,5.2,1.2,7.6,1.7
			c2.5,0.4,4.7,1,6.7,1.3c2,0.3,3.6,0.7,4.8,0.8c1.2,0.2,1.8,0.3,1.8,0.3s-0.7,0-1.9,0.1c-1.2,0-2.9,0.1-4.9-0.1
			c-2-0.1-4.4-0.3-6.9-0.6c-2.5-0.4-5.2-0.9-7.8-1.4c-2.6-0.7-5.2-1.4-7.6-2.2c-2.4-0.8-4.6-1.7-6.5-2.5c-1.9-0.8-3.4-1.6-4.4-2.1
			C41.9,192.9,41.3,192.6,41.3,192.6z M94.8,191.7c0,0-1.2,0-3.2-0.1c-2-0.1-4.9-0.1-8.4-0.5c-3.5-0.3-7.5-0.7-11.8-1.3
			c-4.3-0.6-8.9-1.4-13.4-2.3c-4.5-1-9.1-2-13.3-3.2c-4.2-1.2-8-2.5-11.3-3.6c-3.3-1.2-5.9-2.3-7.8-3.1c-1.9-0.8-2.9-1.4-2.9-1.4
			s1.1,0.3,3.1,0.9c1.9,0.6,4.7,1.3,8.1,2.2c3.3,0.9,7.3,1.8,11.5,2.8c4.2,1,8.7,2,13.2,2.9c4.5,1,9,1.8,13.3,2.6
			c4.3,0.8,8.2,1.6,11.6,2.2c3.4,0.6,6.3,1.1,8.2,1.5C93.6,191.5,94.8,191.7,94.8,191.7z M47,163.8c0,0,0.8,0.3,2.1,0.8
			c1.3,0.6,3.3,1.2,5.5,2.2c2.3,0.9,5,1.9,7.8,3c2.9,1.1,5.9,2.2,9,3.2c3.1,1.1,6.2,2.1,9.1,3c2.9,0.9,5.6,1.8,8,2.4
			c2.4,0.7,4.3,1.3,5.7,1.6c1.4,0.4,2.2,0.6,2.2,0.6s-0.8-0.1-2.2-0.2c-1.4-0.2-3.5-0.4-5.9-0.9c-2.4-0.5-5.3-1-8.2-1.8
			c-3-0.8-6.1-1.7-9.3-2.7c-3.1-1.1-6.2-2.3-9-3.5c-2.9-1.2-5.4-2.5-7.6-3.6c-2.2-1.1-4-2.2-5.2-2.9C47.7,164.2,47,163.8,47,163.8z"
			/>
	</g>
	<g>
		<g>
			<path class="st43" d="M198.3,268.4l-5.8-3.4c-5.7-3.4-11.4-6.6-16.9-9.7c-39.5-22.4-76.8-43.5-71.5-95.5
				c5.7-56-7.3-77.5-7.4-77.7l-8.6-12.6l14.8-4.1c0.5-0.1,12.8-2.1,44.4-10.1c33.6-8.5,48.1-13,48.7-13.1l2.2-0.4l2.2,0.4
				c0.6,0.1,16.3,4.9,49.8,13.4c31.6,8,42.8,9.7,43.3,9.8l14.7,4.3l-8.6,12.6c0,0-13.1,21.5-7.3,77.5c5.3,52-32,73.1-71.5,95.5
				c-5.5,3.1-11.2,6.3-16.9,9.7L198.3,268.4z M121.5,83.4c4.5,13.7,9.1,38.7,5,78.7c-3.7,35.9,18.1,50.1,60.3,73.9
				c3.8,2.1,7.6,4.3,11.5,6.6c3.9-2.2,7.7-4.4,11.5-6.6c42.1-23.9,63.9-38,60.3-73.9c-4.1-40,0.5-64.9,5-78.7
				c-6.8-1.8-16.6-4.4-30.4-7.9c-25.9-6.6-41-9.9-46.4-11.1c-5.4,1.1-20.5,4.5-46.4,11.1C138.2,79,128.3,81.6,121.5,83.4z"/>
		</g>
		<g>
			<path class="st44" d="M198.3,266.1l-5.6-3.3c-5.6-3.3-11-6.5-16.4-9.5c-38.2-21.9-74.3-42.6-69.1-93.5
				c5.6-54.8-7.1-75.9-7.2-76.1l-8.3-12.3l14.4-4c0.4-0.1,12.3-0.8,42.9-8.7c32.5-8.4,46.5-13.9,47.1-14.1l2.2-0.4l2.2,0.4
				c0.6,0.1,14.1,5,46.6,13.4c30.6,7.9,43,9.2,43.4,9.3l14.3,4.2l-8.3,12.3c0,0-12.6,21.1-7.1,75.9c5.2,50.9-30.9,71.6-69.1,93.5
				c-5.3,3.1-10.8,6.2-16.4,9.5L198.3,266.1z M124.1,84.9c4.3,13.5,8.8,37.8,4.8,77c-3.6,35.2,17.5,49,58.3,72.4
				c3.6,2.1,7.4,4.2,11.1,6.4c3.8-2.2,7.5-4.3,11.1-6.4c40.7-23.4,61.8-37.2,58.3-72.4c-4-39.2,0.5-63.6,4.8-77
				c-6.5-1.8-16.1-4.3-29.4-7.7c-25-6.4-39.7-9.7-44.9-10.8c-5.2,1.1-19.8,4.4-44.8,10.8C140.2,80.6,130.6,83.1,124.1,84.9z"/>
		</g>
		<g>
			<path class="st43" d="M198.3,258.8l-2.4-1.4c-5.6-3.3-11.1-6.5-16.5-9.6c-38-21.8-70.8-40.6-66-87.4c5.8-57.8-8-79.8-8.1-80
				l-3.4-5.3l6-1.8c0.4-0.1,12.7-1,43.2-8.8c32.3-8.3,45.7-13.7,46.3-13.8l0.9-0.2l0.9,0.2c0.6,0.1,13.5,5.5,45.8,13.8
				c30.5,7.9,43.2,8.7,43.7,8.8l6.1,1.8l-3.6,5.3c-0.1,0.2-14,22.2-8.1,80c4.7,46.9-28,65.7-66,87.4c-5.4,3.1-10.9,6.2-16.5,9.6
				L198.3,258.8z M115.9,80.7c4.3,10.1,11.5,34.9,6.8,80.6c-4.1,40.8,23.3,56.6,61.4,78.4c4.6,2.7,9.4,5.4,14.2,8.2
				c4.8-2.8,9.6-5.6,14.2-8.2c38-21.8,65.5-37.6,61.4-78.4c-4.6-45.7,2.5-70.4,6.8-80.6c-6-1.7-17.3-4.7-36-9.5
				C217.1,64.1,202,60.8,198.3,60c-3.7,0.8-18.8,4.1-46.4,11.2C133.2,76,121.8,79.1,115.9,80.7z"/>
		</g>
		<path class="st42" d="M198.3,55.2c0,0,13.2,6,45.7,14.4c30.8,7.9,43.4,8.1,43.4,8.1s-15,22.3-8.9,83.1
			c5.1,50.1-35.2,65.6-80.2,92.5c-45-26.9-85.3-42.4-80.2-92.5c6.2-60.7-8.9-83.1-8.9-83.1s12.8-0.5,43.5-8.5
			C185.2,60.9,198.3,55.2,198.3,55.2z"/>
	</g>
	<g>
		<path class="st45" d="M249,162.9l-13.5,13.5H196v26.7h-44.9v-104l13.5-13.5H249V162.9z M196,142h6.1v-24H196V142z"/>
	</g>
	<polygon class="st45" points="198.2,30.3 186.5,36.4 188.7,23.4 179.3,14.1 192.4,12.2 198.2,0.3 204.1,12.2 217.2,14.1 
		207.7,23.4 210,36.4 	"/>
	<polygon class="st45" points="249,38.3 242.4,41.8 243.7,34.5 238.4,29.3 245.7,28.2 249,21.6 252.3,28.2 259.6,29.3 254.3,34.5 
		255.5,41.8 	"/>
	<polygon class="st45" points="147.3,38.3 140.8,41.8 142,34.5 136.7,29.3 144,28.2 147.3,21.6 150.6,28.2 157.9,29.3 152.6,34.5 
		153.9,41.8 	"/>
	<circle class="st45" cx="198.3" cy="240.7" r="3"/>
	<circle class="st45" cx="120.5" cy="84" r="3"/>
	<circle class="st45" cx="276.3" cy="84" r="3"/>
</g>
</svg>
